<?xml version="1.0" encoding="UTF-8" standalone="no"?>
<svg
   xmlns:dc="http://purl.org/dc/elements/1.1/"
   xmlns:cc="http://creativecommons.org/ns#"
   xmlns:rdf="http://www.w3.org/1999/02/22-rdf-syntax-ns#"
   xmlns:svg="http://www.w3.org/2000/svg"
   xmlns="http://www.w3.org/2000/svg"
   xmlns:sodipodi="http://sodipodi.sourceforge.net/DTD/sodipodi-0.dtd"
   xmlns:inkscape="http://www.inkscape.org/namespaces/inkscape"
   version="1.1"
   id="svg2"
   xml:space="preserve"
   width="960"
   height="960"
   viewBox="0 0 960 960"
   sodipodi:docname="Union Bricks Logo.ai"><metadata
     id="metadata8"><rdf:RDF><cc:Work
         rdf:about=""><dc:format>image/svg+xml</dc:format><dc:type
           rdf:resource="http://purl.org/dc/dcmitype/StillImage" /></cc:Work></rdf:RDF></metadata><defs
     id="defs6"><clipPath
       clipPathUnits="userSpaceOnUse"
       id="clipPath28"><path
         d="M 0,720 H 720 V 0 H 0 Z"
         id="path26" /></clipPath></defs><sodipodi:namedview
     pagecolor="#ffffff"
     bordercolor="#666666"
     borderopacity="1"
     objecttolerance="10"
     gridtolerance="10"
     guidetolerance="10"
     inkscape:pageopacity="0"
     inkscape:pageshadow="2"
     inkscape:window-width="640"
     inkscape:window-height="480"
     id="namedview4" /><g
     id="g10"
     inkscape:groupmode="layer"
     inkscape:label="Union Bricks Logo"
     transform="matrix(1.3333333,0,0,-1.3333333,0,960)"><path
       d="m 192.869,266.091 h -9.819 v 173.293 h 9.819 z"
       style="fill:#c05b21;fill-opacity:1;fill-rule:nonzero;stroke:none"
       id="path12" /><g
       id="g14"
       transform="translate(97.793,252.5535)"><path
         d="m 0,0 -7.521,7.52 46.168,46.165 -47.649,47.644 47.649,47.646 -43.888,43.884 7.52,7.521 51.41,-51.405 -47.65,-47.646 47.65,-47.644 z"
         style="fill:#c05b21;fill-opacity:1;fill-rule:nonzero;stroke:none"
         id="path16" /></g><g
       id="g18"
       transform="translate(237.9854,252.5535)"><path
         d="M 0,0 -7.521,7.52 36.364,51.405 -11.281,99.046 36.364,146.69 -9.8,192.859 -2.279,200.38 51.405,146.69 3.761,99.046 51.405,51.405 Z"
         style="fill:#c05b21;fill-opacity:1;fill-rule:nonzero;stroke:none"
         id="path20" /></g><g
       id="g22"><g
         id="g24"
         clip-path="url(#clipPath28)"><g
           id="g30"
           transform="translate(332.8643,406.5399)"><path
             d="M 0,0 V 47.84 H 10.835 V 0.408 c 0,-12.064 8.484,-20.24 21.266,-20.24 12.572,0 21.051,8.176 21.051,20.24 V 47.84 h 10.94 V 0 C 64.092,-17.377 51.32,-28.824 32.101,-28.824 12.881,-28.824 0,-17.377 0,0"
             style="fill:#284592;fill-opacity:1;fill-rule:nonzero;stroke:none"
             id="path32" /></g><g
           id="g34"
           transform="translate(464.6045,413.0818)"><path
             d="m 0,0 v -34.346 h -10.427 v 32.504 c 0,8.485 -6.034,14.106 -15.131,14.106 -9.096,0 -15.127,-5.621 -15.127,-14.106 V -34.346 H -51.111 V 20.24 h 10.018 l 0.204,-8.076 c 3.884,5.826 10.427,9.102 18.812,9.102 C -8.893,21.266 0,12.777 0,0"
             style="fill:#284592;fill-opacity:1;fill-rule:nonzero;stroke:none"
             id="path36" /></g><path
           d="m 479.508,433.321 h 10.422 v -54.587 h -10.422 z m -1.334,17.89 c 0,3.779 2.759,6.543 6.543,6.543 3.684,0 6.442,-2.764 6.442,-6.543 0,-3.78 -2.758,-6.542 -6.442,-6.542 -3.784,0 -6.543,2.762 -6.543,6.542"
           style="fill:#284592;fill-opacity:1;fill-rule:nonzero;stroke:none"
           id="path38" /><g
           id="g40"
           transform="translate(548.1885,406.0301)"><path
             d="m 0,0 c 0,11.552 -7.05,19.314 -17.581,19.314 -10.631,0 -17.686,-7.762 -17.686,-19.314 0,-11.557 7.055,-19.319 17.686,-19.319 C -7.05,-19.319 0,-11.557 0,0 m -46.102,0 c 0,16.964 11.448,28.316 28.521,28.316 16.969,0 28.416,-11.352 28.416,-28.316 0,-16.969 -11.447,-28.316 -28.416,-28.316 -17.073,0 -28.521,11.347 -28.521,28.316"
             style="fill:#284592;fill-opacity:1;fill-rule:nonzero;stroke:none"
             id="path42" /></g><g
           id="g44"
           transform="translate(622.2773,413.0818)"><path
             d="m 0,0 v -34.346 h -10.427 v 32.504 c 0,8.485 -6.034,14.106 -15.132,14.106 -9.096,0 -15.126,-5.621 -15.126,-14.106 V -34.346 H -51.111 V 20.24 h 10.018 l 0.204,-8.076 c 3.884,5.826 10.426,9.102 18.811,9.102 C -8.893,21.266 0,12.777 0,0"
             style="fill:#284592;fill-opacity:1;fill-rule:nonzero;stroke:none"
             id="path46" /></g><g
           id="g48"
           transform="translate(379.0684,277.7772)"><path
             d="m 0,0 c 0,7.563 -5.93,12.677 -14.723,12.677 h -19.623 v -25.355 h 19.523 C -5.93,-12.678 0,-7.568 0,0 m -34.346,21.669 h 16.66 c 8.385,0 14.011,4.705 14.011,11.656 0,6.946 -5.725,11.656 -14.11,11.656 H -34.346 Z M 11.348,-0.204 c 0,-12.882 -10.119,-21.466 -25.349,-21.466 h -31.284 v 75.644 h 30.054 C -1.528,53.974 7.568,46.201 7.568,34.45 7.568,27.086 3.376,21.465 -3.675,18.094 5.626,15.435 11.348,8.793 11.348,-0.204"
             style="fill:#284592;fill-opacity:1;fill-rule:nonzero;stroke:none"
             id="path50" /></g><g
           id="g52"
           transform="translate(433.9385,311.7166)"><path
             d="m 0,0 -0.718,-9.609 c -12.368,0 -19.935,-6.135 -19.935,-15.436 v -30.567 h -10.422 v 54.587 h 10.013 l 0.204,-8.176 C -16.766,-3.172 -9.511,0 0,0"
             style="fill:#284592;fill-opacity:1;fill-rule:nonzero;stroke:none"
             id="path54" /></g><path
           d="m 442.617,310.692 h 10.422 v -54.586 h -10.422 z m -1.329,17.886 c 0,3.784 2.758,6.542 6.542,6.542 3.68,0 6.439,-2.758 6.439,-6.542 0,-3.774 -2.759,-6.538 -6.439,-6.538 -3.784,0 -6.542,2.764 -6.542,6.538"
           style="fill:#284592;fill-opacity:1;fill-rule:nonzero;stroke:none"
           id="path56" /><g
           id="g58"
           transform="translate(465.1934,283.4012)"><path
             d="m 0,0 c 0,16.964 11.447,28.316 28.62,28.316 7.155,0 13.19,-2.254 18.194,-6.134 l -5.925,-7.16 c -3.476,2.868 -7.26,4.292 -12.164,4.292 -10.736,0 -17.89,-7.762 -17.89,-19.314 0,-11.557 7.154,-19.319 17.989,-19.319 5.422,0 10.228,1.733 13.702,5.413 l 6.031,-7.051 C 43.443,-25.861 36.293,-28.316 28.316,-28.316 11.348,-28.316 0,-16.969 0,0"
             style="fill:#284592;fill-opacity:1;fill-rule:nonzero;stroke:none"
             id="path60" /></g><g
           id="g62"
           transform="translate(542.3564,280.4334)"><path
             d="M 0,0 H -8.076 V -24.328 H -18.498 V 55.408 H -8.076 V 8.688 H 0.1 L 19.522,30.259 H 32.713 L 8.589,4.396 34.042,-24.328 H 20.753 Z"
             style="fill:#284592;fill-opacity:1;fill-rule:nonzero;stroke:none"
             id="path64" /></g><g
           id="g66"
           transform="translate(580.0566,261.1131)"><path
             d="M 0,0 4.088,6.437 C 8.997,3.271 14.314,2.146 19.831,2.146 c 6.439,0 10.731,2.967 10.731,7.463 0,4.297 -4.392,6.647 -10.426,8.385 l -5.209,1.429 c -8.893,2.45 -15.028,5.826 -15.028,14.31 0,10.119 8.177,16.87 20.345,16.87 7.764,0 14.102,-1.638 19.52,-5.213 l -4.497,-6.952 c -4.501,2.759 -9.202,3.884 -14.31,3.884 -6.135,0 -10.327,-2.763 -10.327,-7.055 0,-4.088 3.889,-6.03 9.201,-7.564 L 25.045,26.27 C 33.838,23.919 41.297,19.627 41.297,10.426 41.297,0.513 32.813,-6.03 19.728,-6.03 11.655,-6.03 4.601,-3.988 0,0"
             style="fill:#284592;fill-opacity:1;fill-rule:nonzero;stroke:none"
             id="path68" /></g></g></g></g></svg>
